<?xml version="1.0" encoding="UTF-8" standalone="no"?><svg xmlns="http://www.w3.org/2000/svg" xmlns:xlink="http://www.w3.org/1999/xlink" contentScriptType="application/ecmascript" contentStyleType="text/css" height="303px" preserveAspectRatio="none" style="width:666px;height:303px;" version="1.1" viewBox="0 0 666 303" width="666px" zoomAndPan="magnify"><defs><filter height="300%" id="f10c5cy7n61kzp" width="300%" x="-1" y="-1"><feGaussianBlur result="blurOut" stdDeviation="2.0"/><feColorMatrix in="blurOut" result="blurOut2" type="matrix" values="0 0 0 0 0 0 0 0 0 0 0 0 0 0 0 0 0 0 .4 0"/><feOffset dx="4.0" dy="4.0" in="blurOut2" result="blurOut3"/><feBlend in="SourceGraphic" in2="blurOut3" mode="normal"/></filter></defs><g><rect fill="#FFFFFF" filter="url(#f10c5cy7n61kzp)" height="109.4063" style="stroke:#000000;stroke-width:2.0;" width="607" x="10" y="58.6094"/><line style="stroke:#A80036;stroke-width:1.0;stroke-dasharray:5.0,5.0;" x1="70" x2="70" y1="41.6094" y2="258.7188"/><line style="stroke:#A80036;stroke-width:1.0;stroke-dasharray:5.0,5.0;" x1="213" x2="213" y1="41.6094" y2="258.7188"/><line style="stroke:#A80036;stroke-width:1.0;stroke-dasharray:5.0,5.0;" x1="389" x2="389" y1="41.6094" y2="258.7188"/><line style="stroke:#A80036;stroke-width:1.0;stroke-dasharray:5.0,5.0;" x1="558" x2="558" y1="41.6094" y2="258.7188"/><rect fill="#FEFECE" filter="url(#f10c5cy7n61kzp)" height="31.6094" style="stroke:#A80036;stroke-width:1.5;" width="96" x="20" y="5"/><text fill="#000000" font-family="sans-serif" font-size="14" lengthAdjust="spacing" textLength="82" x="27" y="26.5332">IntervalTimer</text><rect fill="#FEFECE" filter="url(#f10c5cy7n61kzp)" height="31.6094" style="stroke:#A80036;stroke-width:1.5;" width="96" x="20" y="257.7188"/><text fill="#000000" font-family="sans-serif" font-size="14" lengthAdjust="spacing" textLength="82" x="27" y="279.252">IntervalTimer</text><rect fill="#FEFECE" filter="url(#f10c5cy7n61kzp)" height="31.6094" style="stroke:#A80036;stroke-width:1.5;" width="162" x="130" y="5"/><text fill="#000000" font-family="sans-serif" font-size="14" lengthAdjust="spacing" textLength="148" x="137" y="26.5332">TimerEventDispatcher1</text><rect fill="#FEFECE" filter="url(#f10c5cy7n61kzp)" height="31.6094" style="stroke:#A80036;stroke-width:1.5;" width="162" x="130" y="257.7188"/><text fill="#000000" font-family="sans-serif" font-size="14" lengthAdjust="spacing" textLength="148" x="137" y="279.252">TimerEventDispatcher1</text><rect fill="#FEFECE" filter="url(#f10c5cy7n61kzp)" height="31.6094" style="stroke:#A80036;stroke-width:1.5;" width="162" x="306" y="5"/><text fill="#000000" font-family="sans-serif" font-size="14" lengthAdjust="spacing" textLength="148" x="313" y="26.5332">TimerEventDispatcher2</text><rect fill="#FEFECE" filter="url(#f10c5cy7n61kzp)" height="31.6094" style="stroke:#A80036;stroke-width:1.5;" width="162" x="306" y="257.7188"/><text fill="#000000" font-family="sans-serif" font-size="14" lengthAdjust="spacing" textLength="148" x="313" y="279.252">TimerEventDispatcher2</text><rect fill="#FEFECE" filter="url(#f10c5cy7n61kzp)" height="31.6094" style="stroke:#A80036;stroke-width:1.5;" width="94" x="509" y="5"/><text fill="#000000" font-family="sans-serif" font-size="14" lengthAdjust="spacing" textLength="80" x="516" y="26.5332">ReadThread</text><rect fill="#FEFECE" filter="url(#f10c5cy7n61kzp)" height="31.6094" style="stroke:#A80036;stroke-width:1.5;" width="94" x="509" y="257.7188"/><text fill="#000000" font-family="sans-serif" font-size="14" lengthAdjust="spacing" textLength="80" x="516" y="279.252">ReadThread</text><path d="M10,58.6094 L83,58.6094 L83,66.6094 L73,76.6094 L10,76.6094 L10,58.6094 " fill="#EEEEEE" style="stroke:#000000;stroke-width:1.0;"/><rect fill="none" height="109.4063" style="stroke:#000000;stroke-width:2.0;" width="607" x="10" y="58.6094"/><text fill="#000000" font-family="sans-serif" font-size="13" font-weight="bold" lengthAdjust="spacing" textLength="28" x="25" y="73.1045">loop</text><text fill="#000000" font-family="sans-serif" font-size="11" font-weight="bold" lengthAdjust="spacing" textLength="50" x="98" y="72.0283">[N times]</text><polygon fill="#A80036" points="201,95.3125,211,99.3125,201,103.3125,205,99.3125" style="stroke:#A80036;stroke-width:1.0;"/><line style="stroke:#A80036;stroke-width:1.0;" x1="70" x2="207" y1="99.3125" y2="99.3125"/><text fill="#000000" font-family="sans-serif" font-size="13" lengthAdjust="spacing" textLength="44" x="77" y="94.4561">Systick</text><polygon fill="#A80036" points="546,125.6641,556,129.6641,546,133.6641,550,129.6641" style="stroke:#A80036;stroke-width:1.0;"/><line style="stroke:#A80036;stroke-width:1.0;" x1="213" x2="552" y1="129.6641" y2="129.6641"/><text fill="#000000" font-family="sans-serif" font-size="13" lengthAdjust="spacing" textLength="88" x="220" y="124.8076">write(serialport)</text><polygon fill="#A80036" points="400,156.0156,390,160.0156,400,164.0156,396,160.0156" style="stroke:#A80036;stroke-width:1.0;"/><line style="stroke:#A80036;stroke-width:1.0;" x1="394" x2="557" y1="160.0156" y2="160.0156"/><text fill="#000000" font-family="sans-serif" font-size="13" lengthAdjust="spacing" textLength="35" x="406" y="155.1592">reload</text><polygon fill="#A80036" points="546,193.3672,556,197.3672,546,201.3672,550,197.3672" style="stroke:#A80036;stroke-width:1.0;"/><line style="stroke:#A80036;stroke-width:1.0;" x1="389" x2="552" y1="197.3672" y2="197.3672"/><text fill="#000000" font-family="sans-serif" font-size="13" lengthAdjust="spacing" textLength="145" x="396" y="192.5107">timeout and send SIGINT</text><line style="stroke:#A80036;stroke-width:1.0;" x1="558" x2="600" y1="227.7188" y2="227.7188"/><line style="stroke:#A80036;stroke-width:1.0;" x1="600" x2="600" y1="227.7188" y2="240.7188"/><line style="stroke:#A80036;stroke-width:1.0;" x1="559" x2="600" y1="240.7188" y2="240.7188"/><polygon fill="#A80036" points="569,236.7188,559,240.7188,569,244.7188,565,240.7188" style="stroke:#A80036;stroke-width:1.0;"/><text fill="#000000" font-family="sans-serif" font-size="13" lengthAdjust="spacing" textLength="94" x="565" y="222.8623">terminate thread</text><!--MD5=[d412499c8698d4b51bf81a40cf7d1960]
@startuml
participant IntervalTimer
participant TimerEventDispatcher1
participant TimerEventDispatcher2
participant ReadThread
loop N times
    IntervalTimer -> TimerEventDispatcher1 : Systick
    TimerEventDispatcher1 -> ReadThread : write(serialport)
    TimerEventDispatcher2 <- ReadThread : reload
end
TimerEventDispatcher2 -> ReadThread : timeout and send SIGINT
ReadThread -> ReadThread : terminate thread
@enduml

PlantUML version 1.2021.00(Sun Jan 10 19:25:05 JST 2021)
(GPL source distribution)
Java Runtime: OpenJDK Runtime Environment
JVM: OpenJDK 64-Bit Server VM
Default Encoding: UTF-8
Language: en
Country: US
--></g></svg>